<svg width="84" height="33" viewBox="0 0 84 33" fill="none" xmlns="http://www.w3.org/2000/svg"><path d="M27.88 16.66h2.7c3.58 0 4.96-3.03 4.96-6.22 0-3.18-1.46-6.07-5.03-6.07h-2.63v12.3zm-1.9-12.95a.95.95 0 01.27-.77.92.92 0 01.75-.27h3.73c4.6 0 6.86 3.63 6.86 7.7 0 4.66-2.49 7.92-6.57 7.92H27a.91.91 0 01-.75-.27.94.94 0 01-.27-.77V3.71zM47 11.78c0-1.7-.95-3.63-3.07-3.63-2.33-.08-3.2 1.85-3.28 3.63H47zm-6.35 1.4c0 2 1.24 3.56 3.43 3.56 2.55 0 3.21-1.56 3.87-1.56.36 0 .66.3.66.9 0 .95-2.34 2.36-4.6 2.36-3.65 0-5.26-2.89-5.26-6 0-3.18 1.97-6 5.18-6 3.14 0 4.97 2.9 4.97 5.7 0 .67-.22 1.04-1.1 1.04h-7.15zm10.66-9.1a.98.98 0 01.56-.96.94.94 0 011.28.56c.04.13.06.26.05.4v2.51h.8c.66 0 .95.3.95.82 0 .51-.29.81-.94.81h-.8v9.1a.98.98 0 01-.26.74.95.95 0 01-1.08.22.95.95 0 01-.51-.56.98.98 0 01-.05-.4V8.3h-.8c-.66 0-.96-.3-.96-.8 0-.53.3-.82.95-.82h.8v-2.6zm5.03 3.47a.98.98 0 01.25-.72.95.95 0 01.7-.31.94.94 0 01.7.3.97.97 0 01.25.73v.97h.07c.44-.9 1.46-2 2.63-2a1 1 0 011 .57c.05.12.09.25.1.39 0 .52-.37.89-1.18 1.04-1.09.22-2.48 1.03-2.48 3.33v5.55a.98.98 0 01-.57.96.94.94 0 01-1.07-.23.97.97 0 01-.25-.73V7.55h-.15zm11.38 9.19c2.34 0 3.14-2.3 3.14-4.3s-.8-4.3-3.14-4.3c-2.33 0-3.14 2.3-3.14 4.3s.8 4.3 3.14 4.3zm0-10.22c3.22 0 5.04 2.89 5.04 6 0 3.1-1.82 6-5.04 6-3.2 0-5.03-2.9-5.03-6 0-3.19 1.82-6 5.03-6zm7.08 1.04a.98.98 0 01.26-.73.95.95 0 011.07-.23.95.95 0 01.52.57c.04.12.06.26.05.39V8l.07.08a4 4 0 013.21-1.56c1.76 0 4.02 1.11 4.02 4.44v6.44a.98.98 0 01-.57.96.94.94 0 01-1.08-.23.97.97 0 01-.25-.73v-6.37c0-2.07-1.39-2.88-2.63-2.88s-2.62.81-2.62 2.88v6.37a.98.98 0 01-.57.96.94.94 0 01-1.08-.23.97.97 0 01-.25-.73V7.55h-.15zM9.93 6.15a.45.45 0 00-.27-.41.43.43 0 00-.48.1.45.45 0 00.48.72.42.42 0 00.24-.24.43.43 0 00.03-.17zm-1.75 1.1a.4.4 0 00.22-.16.41.41 0 00.07-.28v-.14a.4.4 0 00-.17-.23.4.4 0 00-.27-.07H7.9a.4.4 0 00-.23.17.41.41 0 00-.07.27v.15c.03.1.09.18.17.23a.4.4 0 00.27.07h.15zm-1.76.68c0 .07.08.22.08.3.1.08.23.14.36.14.1.01.2-.02.3-.07.14-.08.14-.23.14-.37a.45.45 0 00-.07-.3.4.4 0 00-.3-.22.43.43 0 00-.29.07.64.64 0 00-.21.44zm5.19 7.55a.41.41 0 00.31-.13.43.43 0 00.12-.32.48.48 0 00-.13-.3.47.47 0 00-.3-.14.42.42 0 00-.32.12.43.43 0 00-.12.32c0 .12.05.23.14.3.08.09.18.14.3.15zm1.9-1.34a.4.4 0 00-.17-.23.4.4 0 00-.27-.06h-.15a.4.4 0 00-.23.16.41.41 0 00-.06.28v.15c.02.1.08.18.16.23a.4.4 0 00.28.07h.14a.4.4 0 00.23-.17.41.41 0 00.06-.28v-.15zm.65-.44c.1.01.2-.01.3-.07.14-.08.14-.23.14-.37a.45.45 0 00-.07-.3c-.08-.15-.22-.15-.37-.15a.43.43 0 00-.3.08c-.14.07-.14.22-.14.37.02.1.07.21.15.3a.38.38 0 00.3.14zm1.17-1.92a.65.65 0 00-.22-.45.27.27 0 00-.22-.07.62.62 0 00-.44.22.27.27 0 00-.07.22.65.65 0 00.22.45.27.27 0 00.22.07.62.62 0 00.44-.22.27.27 0 00.07-.22zm.14-1.48v-.08a.4.4 0 00-.36-.44h-.07a.4.4 0 00-.3.09.42.42 0 00-.14.27v.08c0 .1.02.21.1.3a.4.4 0 00.26.14h.08c.1 0 .2-.04.28-.1a.47.47 0 00.15-.27zm-.87-2.08h-.07a.47.47 0 00-.36.44v.08c.01.1.07.2.15.26.08.07.18.1.28.11h.07a.47.47 0 00.36-.44v-.08a.42.42 0 00-.14-.27.4.4 0 00-.3-.1zm-.88-.37a.26.26 0 00.22-.07.44.44 0 00.22-.45.28.28 0 00-.07-.22.44.44 0 00-.44-.22.26.26 0 00-.22.07.45.45 0 00-.22.45.27.27 0 00.08.22.63.63 0 00.43.22zm-.8-1.4a.57.57 0 00-.14-.38.43.43 0 00-.3-.07.55.55 0 00-.36.15.45.45 0 00-.07.3c0 .13.05.26.14.37.09.05.19.08.3.07.13 0 .26-.06.36-.15.07-.07.07-.15.07-.3zm-2.11 0h.14a.49.49 0 00.44-.3V6a.5.5 0 00-.3-.44h-.14a.49.49 0 00-.43.3V6a.5.5 0 00.29.45zM7.59 4.96a.6.6 0 00.36.55.58.58 0 00.64-.13.6.6 0 00-.41-1 .62.62 0 00-.4.18c-.11.1-.18.25-.19.4zm-1.53-.74a.6.6 0 00.36.55.58.58 0 00.64-.13.6.6 0 00-.42-1 .53.53 0 00-.42.15.55.55 0 00-.16.43zm.37 1.34H6.2a.58.58 0 00-.37.59v.22a.9.9 0 00.59.3h.21a.55.55 0 00.37-.52v-.22L6.86 6l.08-.07a.56.56 0 00-.51-.37zm-1.68.96h.22a.92.92 0 00.29-.6V5.7a.56.56 0 00-.51-.37h-.22a.75.75 0 00-.37.6v.22a.58.58 0 00.59.37zm.43.74a.55.55 0 00-.36.15.53.53 0 00-.22.44c0 .14.05.27.15.37a.63.63 0 00.43.22c.14 0 .27-.05.37-.14a.64.64 0 00.22-.45c0-.15-.07-.22-.15-.37a.63.63 0 00-.43-.22zm-2.04.52a.64.64 0 00-.22.44c0 .14.06.27.15.37a.63.63 0 00.44.22c.14 0 .21-.07.36-.14a.64.64 0 00.22-.45.63.63 0 00-.58-.6c-.15.08-.22.08-.37.16zm10.3 8.36a.64.64 0 00-.2-.4.62.62 0 00-.4-.19.61.61 0 00-.38.16c-.1.09-.17.22-.2.36a.6.6 0 00.17.42.58.58 0 00.42.17.48.48 0 00.42-.11.5.5 0 00.16-.4zm1.6.74a.6.6 0 00-.36-.54.58.58 0 00-.64.13.6.6 0 00.41 1 .57.57 0 00.54-.36.59.59 0 00.05-.23zm-.37-1.33h.22a.55.55 0 00.37-.52v-.22a.56.56 0 00-.52-.37h-.21a.55.55 0 00-.37.52v.22c.03.11.1.21.19.28.1.07.2.1.32.1zm1.68-.96h-.22a.55.55 0 00-.36.52v.22a.56.56 0 00.5.37h.23a.55.55 0 00.36-.52v-.22a.56.56 0 00-.51-.37zm-.44-.74c.14 0 .27-.06.37-.15a.64.64 0 00.22-.44.63.63 0 00-.58-.6.55.55 0 00-.37.15.8.8 0 00-.22.52c0 .14.05.27.14.37l.08-.07-.08.07c.08.15.3.15.44.15zm1.68-.37c.14 0 .27-.06.37-.15a.64.64 0 00.21-.44.63.63 0 00-.58-.6.55.55 0 00-.36.15.64.64 0 00-.22.45c0 .13.05.26.14.37a.44.44 0 00.44.22zm-.8-2.67a.43.43 0 00-.3-.07.55.55 0 00-.5.3.45.45 0 00-.08.3.56.56 0 00.3.51c.08.06.18.08.29.07a.54.54 0 00.5-.3c.07-.08.1-.18.08-.29a.63.63 0 00-.3-.52zm1.38-1.03a.43.43 0 00-.29-.08.54.54 0 00-.5.3.45.45 0 00-.08.3.56.56 0 00.3.51c.08.06.18.09.28.08a.55.55 0 00.51-.3c.06-.09.09-.2.08-.3a.57.57 0 00-.3-.51zm-1.82-1.19a.63.63 0 00-.58.45v.07a.65.65 0 00.43.6h.08a.63.63 0 00.58-.45v-.08a.65.65 0 00-.44-.59h-.07zm.95-.3h.07a.63.63 0 00.59-.44v-.07a.65.65 0 00-.44-.6h-.08a.63.63 0 00-.58.45v.07c0 .3.15.6.44.6zm-2.26-1.03v.07c.02.13.1.25.2.33.11.09.25.13.38.12h.07c.13-.03.25-.1.33-.22.08-.1.12-.24.11-.38v-.07a.64.64 0 00-.58-.44h-.08a.56.56 0 00-.32.2.57.57 0 00-.11.39zm1.53-1.7v-.08a.56.56 0 00-.16-.35.54.54 0 00-.35-.17h-.07a.56.56 0 00-.33.22.57.57 0 00-.11.38v.07a.51.51 0 00.31.48.5.5 0 00.2.04h.07a.63.63 0 00.44-.6zm-2.4-.45a.43.43 0 00-.3.08.62.62 0 00-.3.51c0 .1.02.21.08.3a.62.62 0 00.51.3c.1 0 .2-.02.3-.08a.62.62 0 00.28-.52.45.45 0 00-.07-.3.64.64 0 00-.5-.29zm-.45-1.7a.62.62 0 00-.29.52c-.01.1.02.2.07.3a.62.62 0 00.51.29c.1 0 .21-.02.3-.08l-.08-.14.08.14a.74.74 0 00.29-.51.45.45 0 00-.07-.3.62.62 0 00-.51-.3c-.08 0-.22.08-.3.08zm-1.46.74a.62.62 0 00-.43.22.33.33 0 00-.08.37.65.65 0 00.22.45c.1.09.23.14.37.14a.62.62 0 00.43-.22c.1-.1.15-.23.15-.37a.65.65 0 00-.22-.44 1.03 1.03 0 00-.44-.15zm-1.02-.6c.1.1.23.15.37.16a.62.62 0 00.43-.23c.1-.1.15-.23.15-.37a.65.65 0 00-.22-.44.55.55 0 00-.37-.15.62.62 0 00-.43.22.57.57 0 00-.1.62c.04.08.1.15.17.2zM10 5.05h.22a.54.54 0 00.5-.37l-.14-.07.15.07v-.22a.56.56 0 00-.37-.52h-.21a.54.54 0 00-.52.37v.22a.56.56 0 00.37.52zm-.44-1.78a.56.56 0 00-.36-.52h-.22a.54.54 0 00-.51.37v.22a.56.56 0 00.36.52h.22a.54.54 0 00.51-.37v-.22zM4.9 4.66a.72.72 0 00.68-.45.75.75 0 00-.16-.8.73.73 0 00-1.25.52c.03.18.11.36.24.5.14.13.3.21.5.24zM3 6.97a.26.26 0 00.22-.07.65.65 0 00.44-.67.28.28 0 00-.07-.22l-.15.15.22-.15A.75.75 0 003 5.56a.26.26 0 00-.22.07.65.65 0 00-.44.67.28.28 0 00.07.22.62.62 0 00.59.44zm-.94 1.48c-.16.02-.3.07-.44.15a.8.8 0 00-.22.52c.02.16.06.3.15.44.13.14.32.22.5.23.16-.02.31-.07.44-.15a.8.8 0 00.22-.52c-.01-.16-.06-.3-.14-.44l-.22.22.22-.15a.56.56 0 00-.51-.3zm14.15 8.07a.71.71 0 00-.49.2.73.73 0 00-.24.47.67.67 0 00.4.62c.09.03.17.05.26.05.2 0 .38-.08.52-.22a.75.75 0 00.2-.53.66.66 0 00-.2-.42.64.64 0 00-.45-.17zm1.83-2.37a.26.26 0 00-.22.08.65.65 0 00-.44.67.28.28 0 00.07.22c.05.13.14.25.26.33.12.08.26.12.4.11a.27.27 0 00.22-.07.65.65 0 00.44-.67.28.28 0 00-.07-.22.63.63 0 00-.66-.44zm1.02-1.48c.16-.01.3-.06.44-.15a.8.8 0 00.22-.51c-.02-.16-.07-.31-.15-.45a.78.78 0 00-.5-.22c-.16.02-.31.07-.45.15a.8.8 0 00-.22.52c.02.15.07.3.15.44a.66.66 0 00.51.22zM18.4 8.6a.56.56 0 00-.07.37.76.76 0 00.37.6c.08.05.18.08.29.07a.74.74 0 00.58-.37c.07-.11.1-.24.07-.37a.76.76 0 00-.36-.6.54.54 0 00-.37-.07.75.75 0 00-.5.37zm-.58-1.78h.15a.59.59 0 00.6-.34.61.61 0 00.05-.25v-.15a.61.61 0 00-.34-.6.59.59 0 00-.24-.06h-.15a.59.59 0 00-.6.35.61.61 0 00-.06.24v.15a.8.8 0 00.59.66zm-1.9-3.7c-.16.03-.3.1-.4.23a.7.7 0 00-.18.44v.15a.69.69 0 00.66.6h.14l-.07-.3.07.29a.7.7 0 00.58-.67v-.14a.7.7 0 00-.22-.42.69.69 0 00-.43-.18h-.15zm-3.2-.81c-.02.13 0 .25.06.37a.75.75 0 00.59.37c.12.01.25-.02.36-.08l-.14-.22.14.22a.75.75 0 00.3-.96.75.75 0 00-.59-.37.65.65 0 00-.36.08.75.75 0 00-.37.59zm-2.27.22a.65.65 0 00.51-.22l-.22-.15.22.15c.08-.14.13-.3.15-.45a.68.68 0 00-.22-.52 1.03 1.03 0 00-.44-.14.65.65 0 00-.51.22c-.08.14-.13.29-.15.44a.68.68 0 00.22.52c.13.08.28.13.44.15zm-3.21.52c.07 0 .14.07.22.07a.7.7 0 00.65-.44c0-.08.08-.15.08-.22a.65.65 0 00-.44-.67c-.07 0-.15-.07-.22-.07a.63.63 0 00-.66.44c0 .07-.07.15-.07.22a.76.76 0 00.44.67zM3.07 4.82a.72.72 0 00.67-.46.75.75 0 00-.15-.8.73.73 0 00-1.25.52c.01.19.1.37.23.5.13.14.3.22.5.24zM1.32 7.78a.26.26 0 00.22-.08.65.65 0 00.44-.67.28.28 0 00-.08-.22l-.14.08.21-.08a.63.63 0 00-.66-.44.26.26 0 00-.21.07.56.56 0 00-.33.22.57.57 0 00-.11.38.28.28 0 00.07.22.61.61 0 00.58.52zm-.59 3.4c.16-.01.3-.06.44-.14a.8.8 0 00.22-.52c-.01-.16-.06-.31-.15-.45a.78.78 0 00-.5-.22c-.16.02-.31.07-.44.15a.4.4 0 00-.23.17.41.41 0 00-.07.27c.02.16.07.31.15.45a.67.67 0 00.58.3zm17.3 5.19a.72.72 0 00-.68.45.75.75 0 00.16.81.73.73 0 001.25-.53.8.8 0 00-.23-.5.78.78 0 00-.5-.23zm1.67-3.04a.27.27 0 00-.21.07.65.65 0 00-.44.67.28.28 0 00.07.22.63.63 0 00.66.44.26.26 0 00.22-.07.65.65 0 00.44-.67.28.28 0 00-.08-.22.75.75 0 00-.65-.44zm1.24-3.11a.78.78 0 00-.5-.22c-.16.01-.31.06-.44.15a.8.8 0 00-.22.51c.01.16.06.31.14.45.14.13.32.21.51.22.16-.02.3-.07.44-.15a.8.8 0 00.22-.52 1.06 1.06 0 00-.14-.44zM19.5 7.85c.1.06.23.09.36.07a.64.64 0 00.58-.37.68.68 0 00.08-.37.67.67 0 00-.73-.66.64.64 0 00-.59.37.67.67 0 00-.07.37.62.62 0 00.37.6v-.01zm-1.46-2.89h.14a.7.7 0 00.48-.15c.13-.11.22-.27.25-.44v-.15a.73.73 0 00-.15-.48.7.7 0 00-.43-.26h-.15a.7.7 0 00-.47.16.72.72 0 00-.26.44v.14c0 .18.05.35.16.48.1.14.26.23.43.26zm-2.48-2.3h.14l-.07-.29.07.3a.7.7 0 00.43-.26c.1-.14.16-.3.16-.48v-.15a.72.72 0 00-.26-.43.7.7 0 00-.47-.16h-.15a.7.7 0 00-.43.26c-.1.13-.16.3-.15.48v.15a.7.7 0 00.73.6zm-3.22-1.18c.13.01.26-.01.37-.07l-.14-.22.14.22a.75.75 0 00.02-1.28.77.77 0 00-.38-.13.65.65 0 00-.37.08.75.75 0 00-.3.96.89.89 0 00.67.44zM8.9 1.41a.56.56 0 00.52-.22l-.22-.15.29.15a.55.55 0 00.14-.45.58.58 0 00-.22-.51.66.66 0 00-.5-.23.56.56 0 00-.51.23.55.55 0 00-.15.44.58.58 0 00.22.52.44.44 0 00.44.22zM5.48 2.52c.07 0 .14.07.22.07a.63.63 0 00.65-.44L6.13 2l.22.07c0-.07.08-.14.08-.22a.65.65 0 00-.44-.66h-.3a.63.63 0 00-.65.44c0 .08-.07.15-.07.22a.83.83 0 00.5.67zM5.77 9.33a.65.65 0 00.22.45.27.27 0 00.22.07.62.62 0 00.44-.22.27.27 0 00.07-.22.65.65 0 00-.22-.45.27.27 0 00-.22-.07.62.62 0 00-.44.22.27.27 0 00-.07.22zm-.15 1.48v.08c0 .1.03.21.1.3a.4.4 0 00.27.14h.07a.4.4 0 00.3-.1.42.42 0 00.14-.27v-.07c0-.11-.03-.22-.1-.3a.4.4 0 00-.27-.15h-.07a.4.4 0 00-.3.1.42.42 0 00-.14.27zm.8 2.08h.08c.1-.03.2-.08.26-.16.07-.08.1-.18.1-.29v-.07a.46.46 0 00-.44-.37h-.06c-.1.02-.2.07-.26.16a.47.47 0 00-.11.28v.08c.02.1.08.19.16.26.08.06.17.1.28.1zm.88 1.33a.26.26 0 00.22-.08.44.44 0 00.22-.44.28.28 0 00-.07-.22.44.44 0 00-.44-.22.26.26 0 00-.22.07.45.45 0 00-.22.44.28.28 0 00.08.23.63.63 0 00.43.22zm1.32.89c.13 0 .26-.06.36-.15.06-.09.09-.2.07-.3a.57.57 0 00-.14-.37.43.43 0 00-.3-.07.55.55 0 00-.36.15.45.45 0 00-.07.3c0 .13.05.26.15.36.07.08.14.08.28.08zm1.31.44h.15a.49.49 0 00.43-.3v-.14a.5.5 0 00-.29-.45h-.14a.49.49 0 00-.44.3v.15a.47.47 0 00.29.44zM4.31 10.3c.08.08.15.08.3.08a.55.55 0 00.5-.3v-.22a.57.57 0 00-.29-.52.43.43 0 00-.29-.07.54.54 0 00-.51.3.45.45 0 00-.07.29c.07.15.14.37.36.44zm-1.46 1.04c.09.06.19.09.3.07a.55.55 0 00.5-.3c.06-.08.09-.18.08-.29a.57.57 0 00-.3-.52.43.43 0 00-.29-.07.54.54 0 00-.5.3.45.45 0 00-.08.3.76.76 0 00.29.51zm1.82 1.19a.63.63 0 00.59-.45V12a.65.65 0 00-.44-.6h-.07a.63.63 0 00-.59.45v.07a.65.65 0 00.44.6h.07zm-.87.3h-.07a.63.63 0 00-.59.44v.07a.65.65 0 00.44.6h.07a.63.63 0 00.59-.45v-.08a.57.57 0 00-.11-.38.56.56 0 00-.33-.21zm2.26 1.1v-.07c-.07-.37-.3-.52-.51-.52h-.07a.56.56 0 00-.33.21.57.57 0 00-.11.38V14c.03.13.1.25.2.33.12.08.25.12.38.11h.08c.22 0 .36-.3.36-.52zm-1.02 1.11h-.07a.56.56 0 00-.33.22.57.57 0 00-.11.38v.07c.03.13.1.25.2.33.12.08.25.12.38.11h.08c.13-.03.24-.1.32-.21.08-.1.12-.24.11-.38v-.07a.57.57 0 00-.2-.34.55.55 0 00-.38-.1zm1.9.97c.1 0 .2-.02.29-.08a.62.62 0 00.29-.52.45.45 0 00-.07-.3.62.62 0 00-.51-.29.43.43 0 00-.3.07.62.62 0 00-.29.52c0 .1.02.21.07.3a.55.55 0 00.52.3zm.14 1.77c.1.01.2-.01.3-.07a.62.62 0 00.29-.52.45.45 0 00-.08-.3.62.62 0 00-.5-.3.43.43 0 00-.3.08.62.62 0 00-.3.52c0 .1.02.2.08.3a.74.74 0 00.51.3zm1.75-.81a.62.62 0 00.44-.22c.1-.1.15-.24.15-.37a.65.65 0 00-.22-.45.55.55 0 00-.37-.15.62.62 0 00-.43.23c-.1.1-.15.23-.15.37a.65.65 0 00.22.44c.1.1.23.15.36.15zm1.03.59a.55.55 0 00-.37-.15.62.62 0 00-.44.23c-.09.1-.14.23-.14.37a.65.65 0 00.22.44c.1.1.23.14.36.15a.62.62 0 00.44-.23.57.57 0 00.09-.62.52.52 0 00-.16-.19zm1.24-1.48h-.22a.54.54 0 00-.51.37v.22a.56.56 0 00.36.52h.22a.54.54 0 00.51-.37v-.22a.77.77 0 00-.36-.52zm.8 2.37h.22a.54.54 0 00.5-.37v-.22a.56.56 0 00-.36-.52h-.21a.54.54 0 00-.51.37v.22a.56.56 0 00.36.52zm-9.2-5.92a.68.68 0 00.07-.37.76.76 0 00-.36-.6.65.65 0 00-.37-.07.74.74 0 00-.58.37.56.56 0 00-.07.37.76.76 0 00.36.6.74.74 0 00.95-.3zm.59 1.77h-.15a.59.59 0 00-.46.15.6.6 0 00-.2.45v.14a.61.61 0 00.35.61c.07.04.16.06.24.06h.14a.59.59 0 00.46-.15.6.6 0 00.2-.44v-.15a.9.9 0 00-.58-.67zm1.9 3.7c.15-.02.3-.1.4-.22a.7.7 0 00.18-.44v-.15a.7.7 0 00-.23-.42.69.69 0 00-.43-.17h-.14a.7.7 0 00-.43.26c-.11.13-.17.3-.16.48v.15c.05.15.15.29.28.38.13.1.29.14.45.13h.07zm3.2.82a.68.68 0 00-.07-.37.75.75 0 00-.58-.37.65.65 0 00-.37.07.75.75 0 00-.29.97.75.75 0 00.59.37c.12 0 .25-.02.36-.08a.65.65 0 00.37-.6zm2.27-.22a.65.65 0 00-.51.22.54.54 0 00-.15.44.68.68 0 00.22.52c.13.08.28.13.44.15a.66.66 0 00.5-.22c.09-.14.14-.29.15-.45a.68.68 0 00-.22-.52 1.03 1.03 0 00-.43-.14zm3.13-.52c-.07 0-.14-.08-.22-.08a.63.63 0 00-.65.45c0 .07-.08.15-.08.22a.65.65 0 00.44.67c.08 0 .15.07.22.07.14.01.29-.02.4-.1.12-.09.21-.2.26-.34 0-.08.07-.15.07-.22.08-.3-.14-.52-.43-.67zM1.61 13.26a.65.65 0 00-.37-.08.64.64 0 00-.58.37.68.68 0 00-.07.37.67.67 0 00.73.67.64.64 0 00.58-.37.68.68 0 00.07-.37.76.76 0 00-.36-.6zm1.46 2.96h-.15a.7.7 0 00-.47.16.72.72 0 00-.26.43v.15c0 .17.05.34.16.48.1.14.26.23.43.26h.14a.7.7 0 00.48-.16c.13-.1.22-.26.25-.43v-.15c0-.45-.22-.74-.58-.74zm2.48 2.22H5.4a.7.7 0 00-.42.26c-.11.13-.17.3-.16.48v.15c.03.17.12.32.26.43.13.11.3.17.47.16h.15a.7.7 0 00.42-.26c.11-.13.17-.3.16-.48v-.15a.78.78 0 00-.27-.42.76.76 0 00-.46-.17zm3.21 1.18a.65.65 0 00-.36.08.75.75 0 00-.3.96.75.75 0 00.59.37c.12.01.25-.01.36-.07a.75.75 0 00.3-.97.75.75 0 00-.59-.37zm3.36.08a.56.56 0 00-.51.22.54.54 0 00-.15.44.58.58 0 00.22.52.53.53 0 00.44.15.56.56 0 00.5-.22.55.55 0 00.15-.45.58.58 0 00-.22-.51.61.61 0 00-.43-.15zm3.5-1.11c-.07 0-.14-.08-.22-.08a.63.63 0 00-.4.11c-.12.08-.21.2-.25.34 0 .07-.08.15-.08.22a.65.65 0 00.44.67c.07 0 .15.07.22.07a.63.63 0 00.66-.44c0-.08.07-.15.07-.23a.65.65 0 00-.44-.66zM.49 33a.42.42 0 01-.4-.27.44.44 0 01-.03-.17v-5.24c0-.11.05-.22.13-.3a.42.42 0 01.6 0c.08.08.12.19.12.3v5.24a.44.44 0 01-.26.4.42.42 0 01-.16.04zM3.28 32.94a1.5 1.5 0 01-1.1-1.46V28.4a1.55 1.55 0 01.66-1.26 1.5 1.5 0 011.4-.15c.31.13.56.36.73.65a.38.38 0 01.05.32c-.04.12-.1.21-.2.27a.39.39 0 01-.32.05.46.46 0 01-.27-.2.62.62 0 00-.72-.3.61.61 0 00-.34.22.64.64 0 00-.14.4v3.07a.67.67 0 00.47.63c.14.04.3.03.42-.03a.63.63 0 00.3-.28.46.46 0 01.44-.21c.05 0 .1.02.16.05.1.06.16.16.2.27a.39.39 0 01-.05.33 1.49 1.49 0 01-1.69.7zM8.4 26.93c.12 0 .23.04.31.12a.44.44 0 010 .62.42.42 0 01-.3.12h-.73v4.77a.44.44 0 01-.26.4.42.42 0 01-.56-.23.44.44 0 01-.03-.17V27.8h-.74a.42.42 0 01-.3-.12.44.44 0 010-.62.42.42 0 01.3-.12h2.32zM11.52 27.44a.44.44 0 01.15-.46.4.4 0 01.16-.07c.1-.03.22-.02.32.04a.4.4 0 01.2.26 84.13 84.13 0 00.68 2.5l.34 1.23a116.42 116.42 0 01.66-2.44c.1-.44.22-.87.34-1.3a.4.4 0 01.2-.25c.1-.06.22-.07.33-.04a.4.4 0 01.26.2c.06.1.07.22.04.33l-1.42 5.24a.45.45 0 01-.16.23.4.4 0 01-.25.09.41.41 0 01-.26-.09.45.45 0 01-.16-.23l-1.43-5.24zM17.68 33a1.51 1.51 0 01-1.5-1.52V28.4a1.52 1.52 0 01.92-1.4c.37-.16.8-.16 1.17 0a1.51 1.51 0 01.91 1.4v3.07a1.51 1.51 0 01-1.5 1.52zm0-5.24a.63.63 0 00-.59.4.65.65 0 00-.05.25v3.07a.66.66 0 00.39.63.63.63 0 00.85-.37.66.66 0 00.04-.26V28.4a.65.65 0 00-.4-.6.63.63 0 00-.24-.05zM21.96 33a1.46 1.46 0 01-1.06-.45 1.5 1.5 0 01-.44-1.07v-3.07a1.53 1.53 0 01.91-1.4 1.5 1.5 0 011.84.56c.16.25.24.54.24.84v3.07a1.52 1.52 0 01-.9 1.4c-.2.08-.4.12-.6.12zm0-5.24a.63.63 0 00-.6.4.66.66 0 00-.05.25v3.07a.66.66 0 00.18.48.64.64 0 00.72.15.64.64 0 00.35-.37.66.66 0 00.03-.26V28.4a.66.66 0 00-.18-.46.64.64 0 00-.46-.2zM27.61 29.75c-.14.23-.34.42-.58.54l.77 2.12a.4.4 0 010 .33.43.43 0 01-.25.23.4.4 0 01-.32-.01.44.44 0 01-.23-.25l-.83-2.24h-.48v2.1a.44.44 0 01-.12.3.43.43 0 01-.47.1.43.43 0 01-.26-.4v-5.21a.44.44 0 01.26-.4c.06-.02.11-.03.17-.03h1.06c.2 0 .4.04.59.11a1.51 1.51 0 01.91 1.4v.51c0 .28-.07.56-.22.8zm-1.92-.15h.64a.63.63 0 00.6-.4.66.66 0 00.05-.25v-.5a.65.65 0 00-.4-.61.63.63 0 00-.25-.05h-.64v1.8zM32.68 31.98a.59.59 0 00.19-.21.87.87 0 00.08-.29.7.7 0 00-.19-.54l-1.42-1.48a1.52 1.52 0 01-.42-1.17 1.53 1.53 0 011.16-1.37 1.47 1.47 0 011.62.73.4.4 0 01.04.32c-.03.11-.1.21-.2.27a.39.39 0 01-.32.04.42.42 0 01-.25-.2.7.7 0 00-.43-.31.61.61 0 00-.52.12.65.65 0 00-.21.74c.03.08.08.16.14.23l1.42 1.48a1.6 1.6 0 01.43 1.2c-.01.23-.08.45-.18.64-.11.2-.25.36-.42.5a1.48 1.48 0 01-1.24.29 1.58 1.58 0 01-1.03-.75.4.4 0 01-.04-.33.44.44 0 01.35-.32l.17.01c.1.03.2.1.26.2a.69.69 0 00.46.34.66.66 0 00.55-.14zM38.4 32.44a.45.45 0 01-.14.47.43.43 0 01-.6-.08.4.4 0 01-.07-.15 2.95 2.95 0 01-.08-.26l-.08-.3a17.9 17.9 0 01-.1-.39H35.8a10.66 10.66 0 00-.25.95.4.4 0 01-.2.26.43.43 0 01-.33.04.4.4 0 01-.25-.2.45.45 0 01-.04-.34l1.42-5.23a.4.4 0 01.15-.23.45.45 0 01.52 0 .4.4 0 01.15.23l1.43 5.23zm-1.31-1.58l-.26-.96a63.8 63.8 0 00-.26-.94 88.16 88.16 0 00-.51 1.9h1.03zM40 33a.42.42 0 01-.4-.27.44.44 0 01-.02-.17v-5.24a.43.43 0 01.47-.43.42.42 0 01.34.25 40.91 40.91 0 00.7 1.52l.34.71a39.45 39.45 0 01.67-1.44l.36-.79c.04-.09.11-.16.2-.2a.39.39 0 01.28-.04.43.43 0 01.34.42v5.24c0 .12-.05.23-.13.3a.42.42 0 01-.6 0 .44.44 0 01-.13-.3v-3.3a31.48 31.48 0 00-.42.9l-.2.41a.42.42 0 01-.32.25.42.42 0 01-.45-.25 11.56 11.56 0 01-.39-.83l-.21-.47v3.3a.44.44 0 01-.27.4.42.42 0 01-.16.03zM44.95 27.05a.41.41 0 01.3-.12h1.79c.11 0 .22.04.3.12a.44.44 0 010 .62.42.42 0 01-.3.12h-1.36v1.63h1.18c.11 0 .22.04.3.13a.44.44 0 010 .6.42.42 0 01-.3.14h-1.18v1.8h1.36a.44.44 0 01.3.74.42.42 0 01-.3.13h-1.78a.4.4 0 01-.3-.13.41.41 0 01-.13-.3v-5.17a.42.42 0 01.12-.3zM51.74 32.99a.41.41 0 01-.48-.24 85.69 85.69 0 00-1.1-2.32l-.58-1.21v3.34c0 .11-.04.22-.12.3a.42.42 0 01-.6 0 .44.44 0 01-.13-.3v-5.24c0-.1.03-.2.09-.27a.41.41 0 01.24-.15c.09-.03.19-.02.27.03.09.04.16.12.2.2a64.3 64.3 0 001.1 2.33l.59 1.2v-3.34a.42.42 0 01.73-.3c.08.08.12.19.12.3v5.24c0 .1-.03.2-.1.27a.43.43 0 01-.23.16zM53.67 26.9a.4.4 0 01.32.05c.1.06.17.16.2.28a170.71 170.71 0 00.83 3.48c.1-.38.18-.78.28-1.2l.27-1.12.28-1.16a.42.42 0 01.42-.34c.1 0 .19.03.26.1.08.05.13.14.15.24a158.3 158.3 0 00.84 3.48 313.16 313.16 0 01.82-3.48c.03-.12.1-.22.2-.28a.4.4 0 01.32-.05.42.42 0 01.27.2.43.43 0 01.04.32l-1.24 5.24a.43.43 0 01-.15.25.4.4 0 01-.26.09.42.42 0 01-.42-.34l-.28-1.16-.27-1.13c-.1-.4-.2-.8-.28-1.2a623.57 623.57 0 00-.84 3.5.43.43 0 01-.15.24.4.4 0 01-.26.09.42.42 0 01-.42-.34l-1.24-5.24a.4.4 0 01.05-.32.43.43 0 01.26-.2zM60.58 27.05a.41.41 0 01.3-.12h1.79c.1 0 .22.04.3.12a.44.44 0 010 .62.42.42 0 01-.3.12H61.3v1.63h1.18c.11 0 .22.04.3.13a.44.44 0 010 .6.42.42 0 01-.3.14H61.3v1.8h1.36a.44.44 0 01.3.74.42.42 0 01-.3.13h-1.78a.42.42 0 01-.3-.13.43.43 0 01-.13-.3v-5.17a.43.43 0 01.12-.3zM67.13 29.75c-.14.23-.34.42-.58.54l.77 2.12a.4.4 0 010 .33.42.42 0 01-.25.23.4.4 0 01-.32-.01.45.45 0 01-.23-.25l-.83-2.24h-.48v2.1a.44.44 0 01-.12.3.43.43 0 01-.73-.3v-5.21a.44.44 0 01.12-.3.43.43 0 01.3-.13h1.07c.2 0 .4.03.59.11a1.51 1.51 0 01.91 1.4v.51c0 .28-.07.56-.22.8zm-1.92-.15h.64a.63.63 0 00.46-.19.65.65 0 00.19-.46v-.5a.66.66 0 00-.2-.47.64.64 0 00-.45-.19h-.64v1.8zM71.82 32.37a.45.45 0 01-.07.48.4.4 0 01-.14.1.4.4 0 01-.32.02.42.42 0 01-.25-.22l-1.17-2.46-.33.47v1.8c0 .12-.05.22-.13.3a.42.42 0 01-.6 0 .44.44 0 01-.13-.3v-5.24c0-.11.05-.22.13-.3a.42.42 0 01.6 0c.08.08.13.19.13.3v1.95l1.54-2.2a.42.42 0 01.27-.17.41.41 0 01.32.07.38.38 0 01.18.28.45.45 0 01-.08.33l-1.34 1.9 1.39 2.9zM73.18 27.05a.41.41 0 01.3-.12h1.78c.11 0 .22.04.3.12a.44.44 0 010 .62.42.42 0 01-.3.12h-1.35v1.63h1.17c.12 0 .22.04.3.13a.44.44 0 010 .6.42.42 0 01-.3.14h-1.17v1.8h1.35a.44.44 0 01.3.74.42.42 0 01-.3.13h-1.78a.42.42 0 01-.4-.27.44.44 0 01-.03-.17v-5.16a.42.42 0 01.13-.3zM79.72 29.75c-.14.23-.34.42-.58.54l.78 2.12a.4.4 0 010 .33.43.43 0 01-.25.23.41.41 0 01-.33-.01.44.44 0 01-.23-.25l-.82-2.24h-.48v2.1a.44.44 0 01-.27.4.42.42 0 01-.56-.24.44.44 0 01-.03-.17v-5.2a.44.44 0 01.13-.3.42.42 0 01.3-.13h1.07c.2 0 .4.04.58.11a1.5 1.5 0 01.91 1.4v.51c0 .28-.07.56-.22.8zm-1.91-.15h.64a.63.63 0 00.59-.4.66.66 0 00.05-.25v-.5a.66.66 0 00-.4-.61.63.63 0 00-.24-.05h-.64v1.8zM82.87 31.98a.6.6 0 00.19-.21.85.85 0 00.08-.29.7.7 0 00-.19-.54l-1.42-1.48a1.53 1.53 0 01-.42-1.17 1.53 1.53 0 011.16-1.37 1.47 1.47 0 011.62.73.4.4 0 01.04.32.47.47 0 01-.2.27.39.39 0 01-.32.04.42.42 0 01-.26-.2.7.7 0 00-.42-.31.61.61 0 00-.52.12.64.64 0 00-.25.47.66.66 0 00.18.5l1.41 1.48a1.6 1.6 0 01.44 1.2c-.02.23-.08.45-.19.64-.1.2-.25.36-.42.5a1.48 1.48 0 01-1.23.29 1.52 1.52 0 01-1.03-.75.4.4 0 01-.05-.33.44.44 0 01.36-.32l.16.01c.12.03.21.1.27.2a.68.68 0 00.46.34.66.66 0 00.55-.13z" fill="#fff"/></svg>