<svg width="143" height="64" viewBox="0 0 143 64" fill="none" xmlns="http://www.w3.org/2000/svg"><path d="M.94 15.43V3.66c0-.96.68-1.61 1.62-1.61h3.49c4.7 0 7.39 3.02 7.39 7.68 0 4.41-2.86 7.27-7.18 7.27H2.6c-.69 0-1.66-.38-1.66-1.57zM4.1 4.95v9.15h2.13c2.7 0 3.94-2 3.94-4.51 0-2.7-1.26-4.64-4.15-4.64H4.09zm18.82 7.47h-6.45c.21 1.5 1.45 2.19 2.86 2.19 1.55 0 2.62-1.22 3.42-1.22.65 0 1.24.65 1.24 1.3 0 1.3-2.69 2.56-4.93 2.56-3.4 0-5.67-2.48-5.67-5.81 0-3.07 2.22-5.86 5.41-5.86 3.28 0 5.44 2.98 5.44 5.5 0 .9-.4 1.34-1.32 1.34zm-6.5-2.01h4.8c-.17-1.33-1-2.31-2.42-2.31-1.34 0-2.24 1.03-2.39 2.3zm12.92 5.02V3.66c0-.96.67-1.61 1.62-1.61h3.48c4.7 0 7.4 3.02 7.4 7.68 0 4.41-2.86 7.27-7.19 7.27H31c-.7 0-1.66-.38-1.66-1.57zm3.15-10.48v9.15h2.12c2.71 0 3.95-2 3.95-4.51 0-2.7-1.26-4.64-4.16-4.64h-1.91zm18.82 7.47h-6.45c.2 1.5 1.45 2.19 2.86 2.19 1.55 0 2.62-1.22 3.42-1.22.65 0 1.24.65 1.24 1.3 0 1.3-2.7 2.56-4.94 2.56-3.4 0-5.67-2.48-5.67-5.81 0-3.07 2.23-5.86 5.42-5.86 3.28 0 5.44 2.98 5.44 5.5 0 .9-.4 1.34-1.32 1.34zm-6.51-2.01h4.8c-.16-1.33-1-2.31-2.41-2.31-1.34 0-2.25 1.03-2.4 2.3zm8.8 5.04V8.47h-.67c-.82 0-1.33-.5-1.33-1.32 0-.76.57-1.32 1.33-1.32h.67v-1.8c0-1.02.63-1.69 1.5-1.69.9 0 1.52.67 1.52 1.68v1.8h.86c.78 0 1.45.36 1.45 1.33 0 .95-.67 1.32-1.45 1.32h-.86v6.98c0 1-.63 1.68-1.51 1.68s-1.51-.68-1.51-1.68zm4.6 0V7.2c0-1 .8-1.5 1.55-1.5.8 0 1.47.29 1.47 1.25h.04c.57-.84 1.18-1.26 2.12-1.26.74 0 1.47.53 1.47 1.62 0 .99-.9 1.05-1.8 1.47-.9.42-1.83.82-1.83 2.02v4.64c0 1-.63 1.68-1.51 1.68-.89 0-1.52-.68-1.52-1.68zm10.8-9.87c3.19 0 5.42 2.79 5.42 5.86 0 3.15-2.17 5.81-5.42 5.81-3.26 0-5.42-2.66-5.42-5.81 0-3.07 2.23-5.86 5.42-5.86zm0 2.77c-1.66 0-2.4 1.64-2.4 3.09 0 1.44.76 3.04 2.4 3.04s2.4-1.6 2.4-3.04c0-1.45-.74-3.1-2.4-3.1zm5.85 7.1V7.38c0-1 .63-1.68 1.51-1.68.78 0 1.28.42 1.39 1.12.59-.82 1.49-1.24 2.92-1.24 2.37 0 4.13 1.5 4.13 4.07v5.8c0 1-.63 1.68-1.5 1.68-.9 0-1.52-.68-1.52-1.68v-5.27c0-1.41-.88-2.08-1.97-2.08-1.24 0-1.94.9-1.94 2.08v5.27c0 1-.63 1.68-1.5 1.68-.9 0-1.52-.68-1.52-1.68zm15.7-.02V3.66c0-.96.66-1.61 1.6-1.61h3.5c4.7 0 7.39 3.02 7.39 7.68 0 4.41-2.86 7.27-7.19 7.27H92.2c-.7 0-1.66-.38-1.66-1.57zm3.14-10.48v9.15h2.12c2.71 0 3.95-2 3.95-4.51 0-2.7-1.26-4.64-4.16-4.64h-1.9zm9.9 10.5V7.38c0-1 .62-1.68 1.5-1.68.89 0 1.52.67 1.52 1.68v8.07c0 1-.63 1.68-1.52 1.68-.88 0-1.5-.68-1.5-1.68zm1.5-14.28c.9 0 1.7.77 1.7 1.66 0 .94-.75 1.74-1.7 1.74-.9 0-1.7-.82-1.7-1.75 0-.86.8-1.65 1.7-1.65zm12.68 6.21v8.74c0 3.63-2.37 5.46-5.82 5.46-1.23 0-4.76-.61-4.76-2.27 0-.57.63-1.32 1.21-1.32.97 0 2.04.94 3.78.94 1.47 0 2.57-.86 2.57-2.4v-.7h-.05c-.63.92-1.65 1.42-3.04 1.42-3.17 0-4.66-2.8-4.66-5.8 0-3.04 1.93-5.87 4.98-5.87 1.02 0 2.2.46 2.77 1.38.19-.8.67-1.26 1.5-1.26.9 0 1.52.67 1.52 1.68zm-3.02 4.12c0-1.47-.72-3.15-2.38-3.15-1.57 0-2.35 1.64-2.35 3.04 0 1.62.78 3.09 2.35 3.09 1.62 0 2.38-1.51 2.38-2.98zm3.87 3.95V7.38c0-1 .63-1.68 1.5-1.68.89 0 1.52.67 1.52 1.68v8.07c0 1-.63 1.68-1.51 1.68s-1.51-.68-1.51-1.68zm1.5-14.28c.91 0 1.7.77 1.7 1.66 0 .94-.75 1.74-1.7 1.74-.9 0-1.7-.82-1.7-1.75 0-.86.8-1.65 1.7-1.65zm3.09 14.28V8.47h-.67c-.82 0-1.33-.5-1.33-1.32 0-.76.57-1.32 1.33-1.32h.67v-1.8c0-1.02.63-1.69 1.51-1.69s1.51.67 1.51 1.68v1.8h.86c.78 0 1.45.36 1.45 1.33 0 .95-.67 1.32-1.45 1.32h-.86v6.98c0 1-.63 1.68-1.51 1.68s-1.51-.68-1.51-1.68zm14.97-7.77v7.47c0 .78 0 1.98-1.45 1.98-.88 0-1.24-.49-1.45-1.28a3.62 3.62 0 01-2.88 1.4c-2.83 0-5-2.41-5-5.81 0-3.32 2.23-5.86 5-5.86 1.12 0 2.2.44 2.88 1.38.08-.73.72-1.26 1.45-1.26 1.45 0 1.45 1.2 1.45 1.98zm-7.75 3.76c0 1.44.76 3.04 2.4 3.04 1.57 0 2.33-1.6 2.33-3.04 0-1.45-.74-3.1-2.34-3.1-1.66 0-2.39 1.65-2.39 3.1zm8.6 4V2.52c0-1 .62-1.68 1.5-1.68.89 0 1.52.67 1.52 1.68v12.94c0 1-.63 1.68-1.51 1.68-.89 0-1.52-.68-1.52-1.68zM2.91 36.5L.25 25.02a2.66 2.66 0 01-.08-.71c0-.67.56-1.39 1.49-1.39 1 0 1.49.59 1.68 1.51l1.78 8.93h.05l2.73-9.2c.23-.75.86-1.24 1.63-1.24.78 0 1.41.48 1.64 1.24l2.73 9.2h.04l1.79-8.93c.19-.92.67-1.5 1.68-1.5.92 0 1.49.7 1.49 1.38 0 .3-.02.44-.08.71L16.15 36.5c-.21.88-.9 1.64-2.08 1.64a2.14 2.14 0 01-2.08-1.54l-2.44-8.1h-.04l-2.43 8.1A2.14 2.14 0 015 38.13a2.05 2.05 0 01-2.08-1.64zm20.37-9.91c3.2 0 5.42 2.79 5.42 5.86 0 3.15-2.16 5.81-5.42 5.81-3.25 0-5.42-2.66-5.42-5.81 0-3.07 2.23-5.86 5.42-5.86zm0 2.77c-1.66 0-2.4 1.64-2.4 3.09 0 1.44.76 3.04 2.4 3.04s2.4-1.6 2.4-3.04c0-1.45-.74-3.1-2.4-3.1zm5.81 7.1V28.2c0-1 .8-1.5 1.55-1.5.8 0 1.47.29 1.47 1.25h.05c.56-.84 1.17-1.26 2.12-1.26.73 0 1.47.53 1.47 1.62 0 .99-.9 1.05-1.8 1.47-.91.42-1.84.82-1.84 2.02v4.64c0 1-.63 1.68-1.5 1.68-.89 0-1.52-.68-1.52-1.68zm6.2 0V23.5c0-1 .63-1.68 1.5-1.68.89 0 1.52.67 1.52 1.68v7.06l3.32-3.22c.48-.46.96-.65 1.36-.65.76 0 1.28.7 1.28 1.37 0 .44-.14.8-.58 1.2L41 31.65l3.56 4.16c.27.31.38.67.38 1 0 .8-.63 1.43-1.43 1.43-.55 0-.97-.33-1.45-.92l-3.7-4.56h-.04v3.68c0 1-.63 1.68-1.51 1.68s-1.51-.68-1.51-1.68zm17.26-7.69c0 .7-.53 1.34-1.24 1.34-.57 0-1.72-.88-2.71-.88-.55 0-1.03.25-1.03.84 0 1.4 5.25 1.2 5.25 4.64 0 2.02-1.7 3.55-4.3 3.55-1.7 0-4.22-.96-4.22-2.33 0-.46.46-1.34 1.3-1.34 1.17 0 1.7 1.03 3.13 1.03.92 0 1.2-.3 1.2-.87 0-1.38-5.26-1.17-5.26-4.64 0-2.1 1.7-3.52 4.1-3.52 1.49 0 3.78.69 3.78 2.18zm.5 12.14V28.38c0-1 .63-1.68 1.5-1.68.85 0 1.33.46 1.52 1.26.57-.92 1.74-1.38 2.88-1.38 3.25 0 4.87 3.04 4.87 5.98 0 2.86-1.93 5.7-4.98 5.7-.94 0-1.97-.36-2.77-1.06v3.7c0 1-.63 1.68-1.51 1.68s-1.51-.67-1.51-1.68zm3.02-8.57c0 1.47.72 3.15 2.37 3.15 1.58 0 2.36-1.64 2.36-3.04 0-1.43-.78-3.1-2.36-3.1-1.61 0-2.37 1.52-2.37 2.99zm18.53-3.65v7.47c0 .78 0 1.98-1.45 1.98-.88 0-1.24-.49-1.45-1.29a3.62 3.62 0 01-2.88 1.41c-2.83 0-5-2.41-5-5.81 0-3.32 2.23-5.86 5-5.86 1.12 0 2.2.44 2.88 1.38.08-.73.71-1.26 1.45-1.26 1.45 0 1.45 1.2 1.45 1.98zm-7.75 3.76c0 1.44.76 3.04 2.4 3.04 1.57 0 2.32-1.6 2.32-3.04 0-1.45-.73-3.1-2.33-3.1-1.66 0-2.4 1.65-2.4 3.1zm17.3-3.95c0 .63-.43 1.45-1.15 1.45-.75 0-1.43-.6-2.4-.6-1.71 0-2.53 1.54-2.53 3.1 0 1.49.9 3.04 2.54 3.04.75 0 1.89-.63 2.25-.63.71 0 1.3.6 1.3 1.32 0 1.56-2.6 2.08-3.7 2.08-3.25 0-5.42-2.66-5.42-5.81 0-3.07 2.23-5.86 5.42-5.86 1.2 0 3.7.44 3.7 1.9zm9.1 4.93H86.8c.21 1.5 1.45 2.19 2.86 2.19 1.55 0 2.62-1.22 3.42-1.22.65 0 1.24.65 1.24 1.3 0 1.3-2.69 2.56-4.94 2.56-3.4 0-5.67-2.48-5.67-5.81 0-3.07 2.23-5.86 5.42-5.86 3.28 0 5.44 2.98 5.44 5.5 0 .9-.4 1.34-1.32 1.34zm-6.51-2.01h4.8c-.16-1.33-1-2.31-2.4-2.31-1.35 0-2.25 1.02-2.4 2.3zm8.38-1.54a1.64 1.64 0 113.28 0 1.64 1.64 0 01-3.28 0zm0 6.74a1.64 1.64 0 113.28 0 1.64 1.64 0 01-3.28 0zm19.58-7.93v7.47c0 .78 0 1.98-1.45 1.98-.89 0-1.24-.49-1.45-1.29a3.62 3.62 0 01-2.88 1.41c-2.84 0-5-2.41-5-5.81 0-3.32 2.23-5.86 5-5.86 1.11 0 2.2.44 2.88 1.38.08-.73.71-1.26 1.45-1.26 1.44 0 1.44 1.2 1.44 1.98zm-7.75 3.76c0 1.44.75 3.04 2.39 3.04 1.58 0 2.33-1.6 2.33-3.04 0-1.45-.73-3.1-2.33-3.1-1.66 0-2.4 1.65-2.4 3.1zm8.59 4V23.52c0-1 .63-1.68 1.51-1.68s1.51.67 1.51 1.68v12.94c0 1-.63 1.68-1.5 1.68-.89 0-1.52-.68-1.52-1.68zm3.81 0V23.52c0-1 .64-1.68 1.52-1.68s1.5.67 1.5 1.68v12.94c0 1-.62 1.68-1.5 1.68s-1.52-.68-1.52-1.68zm12.74-3.02h-6.44c.2 1.5 1.45 2.19 2.85 2.19 1.56 0 2.63-1.22 3.43-1.22.65 0 1.24.65 1.24 1.3 0 1.3-2.7 2.56-4.94 2.56-3.4 0-5.67-2.48-5.67-5.81 0-3.07 2.23-5.86 5.42-5.86 3.27 0 5.44 2.98 5.44 5.5 0 .9-.4 1.34-1.33 1.34zm-6.5-2.01h4.8c-.16-1.33-1-2.31-2.41-2.31-1.34 0-2.25 1.02-2.4 2.3zm15.66-2.65c0 .7-.52 1.34-1.24 1.34-.56 0-1.72-.88-2.7-.88-.55 0-1.03.25-1.03.84 0 1.4 5.25 1.2 5.25 4.64 0 2.02-1.7 3.55-4.3 3.55-1.71 0-4.23-.96-4.23-2.33 0-.46.46-1.34 1.3-1.34 1.18 0 1.7 1.03 3.13 1.03.93 0 1.2-.3 1.2-.87 0-1.38-5.25-1.17-5.25-4.64 0-2.1 1.7-3.52 4.1-3.52 1.48 0 3.77.69 3.77 2.18zM3.02 57.59L.46 50.35a4.2 4.2 0 01-.31-1.43c0-.67.63-1.22 1.5-1.22.74 0 1.27.48 1.44 1.2l1.74 5.77h.04l1.77-5.65c.23-.81.65-1.32 1.53-1.32s1.3.5 1.53 1.32l1.77 5.65h.04l1.74-5.77c.17-.71.7-1.2 1.43-1.2.88 0 1.51.55 1.51 1.47 0 .34-.15.67-.3 1.14l-2.58 7.28c-.31.88-.84 1.54-1.82 1.54-.93 0-1.47-.53-1.75-1.41L8.2 52.85h-.04l-1.56 4.87c-.27.88-.81 1.4-1.74 1.4-.99 0-1.51-.64-1.83-1.53zm23.68-7.91v7.47c0 .78 0 1.98-1.45 1.98-.88 0-1.24-.49-1.45-1.29a3.62 3.62 0 01-2.88 1.41c-2.83 0-5-2.41-5-5.81 0-3.32 2.23-5.86 5-5.86 1.12 0 2.2.44 2.88 1.38.08-.73.71-1.26 1.45-1.26 1.45 0 1.45 1.2 1.45 1.98zm-7.75 3.76c0 1.44.75 3.04 2.4 3.04 1.57 0 2.32-1.6 2.32-3.04 0-1.45-.73-3.1-2.33-3.1-1.66 0-2.4 1.65-2.4 3.1zm9.37 4v-6.97h-.67c-.82 0-1.33-.5-1.33-1.32 0-.75.57-1.32 1.33-1.32h.67v-1.8c0-1.02.63-1.69 1.51-1.69s1.51.67 1.51 1.68v1.8h.86c.78 0 1.45.37 1.45 1.33 0 .95-.67 1.32-1.45 1.32h-.86v6.98c0 1-.63 1.68-1.5 1.68-.9 0-1.52-.68-1.52-1.68zm9.38 4.46V49.38c0-1 .63-1.68 1.5-1.68.89 0 1.52.67 1.52 1.68V61.9c0 1-.63 1.68-1.51 1.68s-1.51-.67-1.51-1.68zm1.5-18.73c.91 0 1.7.77 1.7 1.66 0 .94-.75 1.74-1.7 1.74-.9 0-1.7-.82-1.7-1.74 0-.87.8-1.66 1.7-1.66zm11.24 11.25h-6.45c.2 1.5 1.45 2.19 2.85 2.19 1.56 0 2.63-1.22 3.43-1.22.65 0 1.24.65 1.24 1.3 0 1.3-2.7 2.56-4.94 2.56-3.4 0-5.67-2.48-5.67-5.81 0-3.07 2.23-5.86 5.42-5.86 3.28 0 5.44 2.98 5.44 5.5 0 .9-.4 1.34-1.32 1.34zm-6.51-2.01h4.8c-.16-1.33-1-2.31-2.41-2.31-1.34 0-2.25 1.02-2.4 2.3zm15 5.18l-2.56-7.24a4.2 4.2 0 01-.31-1.43c0-.67.63-1.22 1.5-1.22.74 0 1.27.48 1.44 1.2l1.74 5.77h.04l1.77-5.65c.23-.81.65-1.32 1.53-1.32s1.3.5 1.53 1.32l1.77 5.65h.04l1.74-5.77c.17-.71.7-1.2 1.43-1.2.88 0 1.51.55 1.51 1.47 0 .34-.15.67-.3 1.14l-2.58 7.28c-.31.88-.84 1.54-1.82 1.54-.93 0-1.47-.53-1.75-1.41l-1.55-4.87h-.04l-1.56 4.87c-.27.88-.81 1.4-1.74 1.4-.99 0-1.51-.64-1.83-1.53zm13.3-.14v-8.07c0-1 .63-1.68 1.52-1.68.88 0 1.5.67 1.5 1.68v8.07c0 1-.62 1.68-1.5 1.68-.89 0-1.52-.68-1.52-1.68zm1.52-14.28c.9 0 1.7.77 1.7 1.66 0 .94-.76 1.74-1.7 1.74-.9 0-1.7-.82-1.7-1.74 0-.87.8-1.66 1.7-1.66zm2.3 14.28V44.5c0-1 .63-1.68 1.51-1.68s1.51.67 1.51 1.68v12.94c0 1-.63 1.68-1.5 1.68-.9 0-1.52-.68-1.52-1.68zm4.6 0v-6.98h-.68c-.82 0-1.32-.5-1.32-1.32 0-.75.56-1.32 1.32-1.32h.67v-1.8c0-1.02.63-1.69 1.51-1.69.89 0 1.52.67 1.52 1.68v1.8h.86c.77 0 1.45.37 1.45 1.33 0 .95-.68 1.32-1.45 1.32h-.86v6.98c0 1-.63 1.68-1.52 1.68-.88 0-1.5-.68-1.5-1.68zm11.57.14l-2.56-7.24a4.2 4.2 0 01-.31-1.43c0-.67.63-1.22 1.5-1.22.74 0 1.27.48 1.44 1.2l1.74 5.77h.04l1.76-5.65c.24-.81.66-1.32 1.54-1.32s1.3.5 1.53 1.32l1.76 5.65h.05l1.74-5.77c.17-.71.7-1.2 1.43-1.2.88 0 1.5.55 1.5 1.47 0 .34-.14.67-.28 1.14l-2.59 7.28c-.31.88-.84 1.54-1.83 1.54-.92 0-1.46-.53-1.74-1.41l-1.55-4.87h-.04l-1.56 4.87c-.27.88-.82 1.4-1.74 1.4-.99 0-1.51-.64-1.83-1.53zm22.23-3.17H108c.21 1.5 1.45 2.19 2.86 2.19 1.55 0 2.62-1.22 3.42-1.22.65 0 1.24.65 1.24 1.3 0 1.3-2.69 2.56-4.94 2.56-3.4 0-5.67-2.48-5.67-5.81 0-3.07 2.23-5.86 5.42-5.86 3.28 0 5.44 2.98 5.44 5.5 0 .9-.4 1.34-1.32 1.34zm-6.51-2.01h4.8c-.16-1.33-1-2.31-2.4-2.31-1.35 0-2.26 1.02-2.4 2.3zm8.8 5.04v-6.98h-.67c-.82 0-1.33-.5-1.33-1.32 0-.75.57-1.32 1.33-1.32h.67v-1.8c0-1.02.63-1.69 1.51-1.69s1.51.67 1.51 1.68v1.8h.86c.78 0 1.45.37 1.45 1.33 0 .95-.67 1.32-1.45 1.32h-.86v6.98c0 1-.63 1.68-1.51 1.68s-1.51-.68-1.51-1.68zm13.52-3.03h-6.45c.21 1.5 1.45 2.19 2.86 2.19 1.55 0 2.62-1.22 3.42-1.22.65 0 1.24.65 1.24 1.3 0 1.3-2.69 2.56-4.93 2.56-3.4 0-5.67-2.48-5.67-5.81 0-3.07 2.22-5.86 5.41-5.86 3.28 0 5.44 2.98 5.44 5.5 0 .9-.4 1.34-1.32 1.34zm-6.51-2.01h4.8c-.16-1.33-1-2.31-2.4-2.31-1.35 0-2.25 1.02-2.4 2.3zm8.07 5.04v-8.07c0-1 .63-1.68 1.5-1.68.79 0 1.29.42 1.4 1.11.58-.81 1.49-1.23 2.91-1.23 2.38 0 4.14 1.5 4.14 4.07v5.8c0 1-.63 1.68-1.51 1.68s-1.51-.68-1.51-1.68v-5.28c0-1.4-.88-2.07-1.98-2.07-1.24 0-1.93.9-1.93 2.07v5.28c0 1-.63 1.68-1.51 1.68s-1.51-.68-1.51-1.68z" fill="#fff"/></svg>