<svg width="96" height="42" viewBox="0 0 96 42" fill="none" xmlns="http://www.w3.org/2000/svg"><rect width="96" height="42" rx="9" fill="#FF8200"/><path d="M15.59 23.93v-7.25c0-.65.41-1.01.97-1.01s.98.36.98 1.01v6.53h2.3c.67 0 .96.49.95.93a.91.91 0 01-.94.86H16.6c-.64 0-1.02-.42-1.02-1.07zm11.04-1.76h-3.99c.13.92.9 1.35 1.77 1.35.96 0 1.62-.76 2.12-.76.4 0 .77.4.77.81 0 .8-1.67 1.59-3.06 1.59-2.1 0-3.51-1.54-3.51-3.6 0-1.9 1.38-3.63 3.35-3.63 2.03 0 3.37 1.84 3.37 3.4 0 .56-.25.84-.82.84zm-4.03-1.25h2.98c-.1-.82-.62-1.43-1.5-1.43-.83 0-1.39.64-1.48 1.43zm11.08 1.25h-4c.14.92.9 1.35 1.78 1.35.96 0 1.62-.76 2.12-.76.4 0 .76.4.76.81 0 .8-1.66 1.59-3.05 1.59-2.1 0-3.51-1.54-3.51-3.6 0-1.9 1.38-3.63 3.35-3.63 2.03 0 3.37 1.84 3.37 3.4 0 .56-.25.84-.82.84zm-4.03-1.25h2.98c-.1-.82-.63-1.43-1.5-1.43-.83 0-1.39.64-1.48 1.43zm10.28-1.64c0 .43-.32.83-.76.83-.35 0-1.07-.54-1.68-.54-.34 0-.64.15-.64.52 0 .87 3.25.74 3.25 2.87 0 1.25-1.05 2.2-2.66 2.2-1.05 0-2.61-.6-2.61-1.45 0-.28.28-.83.8-.83.73 0 1.05.64 1.94.64.57 0 .74-.18.74-.54 0-.85-3.25-.72-3.25-2.87 0-1.3 1.05-2.18 2.53-2.18.93 0 2.34.43 2.34 1.35zm5.9 5.02l-1.89-4.84c-.09-.23-.11-.38-.11-.54 0-.6.46-.91.97-.91.52 0 .74.37.83.66l1.2 3.7h.02l1.2-3.7c.1-.29.31-.66.83-.66.51 0 .98.3.98.9 0 .18-.03.32-.12.55l-1.88 4.84c-.19.48-.38.78-1.02.78s-.83-.3-1.01-.78zm10.11-2.13h-3.99c.13.92.9 1.35 1.77 1.35.96 0 1.62-.76 2.12-.76.4 0 .76.4.76.81 0 .8-1.66 1.59-3.05 1.59-2.1 0-3.51-1.54-3.51-3.6 0-1.9 1.38-3.63 3.35-3.63 2.03 0 3.37 1.84 3.37 3.4 0 .56-.25.84-.82.84zm-4.03-1.25h2.98c-.1-.82-.63-1.43-1.5-1.43-.83 0-1.39.64-1.48 1.43zm5.55 3.12v-5.1c0-.62.5-.93.96-.93.5 0 .91.18.91.78h.03c.35-.52.73-.78 1.31-.78.46 0 .91.32.91 1 0 .6-.55.65-1.11.9-.56.27-1.13.51-1.13 1.25v2.88c0 .62-.4 1.04-.94 1.04-.55 0-.94-.42-.94-1.04zm10.6-8.01v8c0 .63-.4 1.05-.95 1.05-.52 0-.81-.29-.93-.78-.35.57-1.08.86-1.72.86-1.88 0-3.08-1.76-3.08-3.53 0-1.82 1-3.7 3.02-3.7.65 0 1.28.22 1.78.65v-2.55c0-.62.39-1.04.93-1.04.55 0 .94.42.94 1.04zm-1.88 5.46c0-.91-.47-1.85-1.47-1.85-.98 0-1.46 1.03-1.46 1.91 0 .88.48 1.89 1.46 1.89 1.03 0 1.47-1.04 1.47-1.95zm8.5.68H70.7c.13.92.9 1.35 1.77 1.35.96 0 1.63-.76 2.12-.76.4 0 .77.4.77.81 0 .8-1.67 1.59-3.06 1.59-2.1 0-3.5-1.54-3.5-3.6 0-1.9 1.37-3.63 3.35-3.63 2.02 0 3.36 1.84 3.36 3.4 0 .56-.24.84-.82.84zm-4.03-1.25h2.98c-.1-.82-.62-1.43-1.5-1.43-.83 0-1.39.64-1.48 1.43zm5.56 3.12v-5.1c0-.62.49-.93.96-.93.5 0 .9.18.9.78h.03c.35-.52.73-.78 1.32-.78.45 0 .9.32.9 1 0 .6-.55.65-1.11.9-.56.27-1.13.51-1.13 1.25v2.88c0 .62-.4 1.04-.94 1.04-.54 0-.93-.42-.93-1.04z" fill="#ECECEC"/></svg>