<svg width="126" height="23" viewBox="0 0 126 23" fill="none" xmlns="http://www.w3.org/2000/svg"><path d="M3.58 1.4c.67 0 1.21.17 1.62.52.4.35.61.82.61 1.41 0 .6-.2 1.06-.62 1.39-.4.33-.95.49-1.62.49l-.07.05H1.88V8h-.8V1.4h2.5zm-.01 3.11c.47 0 .82-.1 1.05-.29.23-.2.35-.5.35-.89 0-.4-.12-.69-.35-.88-.23-.2-.58-.3-1.05-.3H1.88v2.36h1.69zm.46.16L6.21 8h-.95l-1.9-2.89.67-.44zM9.5 8.1c-.47 0-.9-.1-1.27-.31-.36-.2-.65-.5-.86-.89-.2-.4-.3-.86-.3-1.4 0-.54.1-1 .3-1.39.21-.4.5-.7.85-.9.36-.2.77-.31 1.23-.31.47 0 .87.1 1.2.3.33.2.58.47.75.82.18.34.26.72.26 1.15a4.42 4.42 0 01-.04.56H7.58v-.71h3.7l-.42.08c0-.48-.13-.85-.4-1.11a1.4 1.4 0 00-1.03-.39c-.32 0-.6.08-.85.23-.23.15-.41.36-.55.65-.12.28-.19.62-.19 1.02s.07.73.2 1.02c.14.29.32.5.56.66.25.15.54.22.88.22.37 0 .67-.07.9-.21.23-.14.41-.33.55-.57l.63.37a2.09 2.09 0 01-1.18.98c-.26.09-.55.13-.88.13zm5.76-5.2c.34 0 .65.05.9.16.27.1.5.26.7.46.19.2.35.44.47.71l-.76.36c-.11-.32-.27-.56-.5-.73a1.3 1.3 0 00-.83-.26c-.34 0-.62.08-.86.23a1.4 1.4 0 00-.55.65c-.13.28-.2.62-.2 1.02s.07.73.2 1.02c.12.29.3.5.55.66.24.15.52.22.86.22.26 0 .48-.04.67-.12.19-.08.35-.2.47-.35.12-.15.2-.34.26-.56l.74.26c-.12.3-.27.57-.47.79-.2.22-.43.39-.71.51-.28.11-.6.17-.94.17-.47 0-.89-.1-1.25-.31-.37-.2-.66-.5-.86-.89-.21-.4-.31-.86-.31-1.4 0-.54.1-1 .3-1.39.21-.4.5-.7.87-.9.36-.2.78-.31 1.25-.31zm5.61 5.2c-.47 0-.9-.1-1.27-.31-.37-.2-.65-.5-.86-.89-.2-.4-.3-.86-.3-1.4 0-.54.1-1 .3-1.39.2-.4.5-.7.85-.9.36-.2.77-.31 1.23-.31.47 0 .86.1 1.2.3.32.2.58.47.75.82.17.34.26.72.26 1.15a4.42 4.42 0 01-.04.56h-4.04v-.71h3.7l-.42.08c0-.48-.13-.85-.4-1.11a1.4 1.4 0 00-1.03-.39c-.33 0-.6.08-.85.23-.23.15-.42.36-.55.65-.13.28-.19.62-.19 1.02s.07.73.2 1.02c.13.29.32.5.56.66.25.15.54.22.88.22.37 0 .66-.07.9-.21.22-.14.41-.33.55-.57l.63.37a2.09 2.09 0 01-1.18.98c-.26.09-.55.13-.88.13zm3.68-.1V3h.7l.07 1.12-.13-.11a1.67 1.67 0 011.05-1 2.52 2.52 0 011.72.1c.3.13.53.34.7.62.18.28.27.64.27 1.07V8h-.8V5.08c0-.55-.12-.94-.36-1.15a1.22 1.22 0 00-.87-.33c-.24 0-.48.06-.72.17-.24.11-.44.3-.6.55-.15.25-.23.6-.23 1.02V8h-.8zm7.3-6.42v5.04c0 .25.08.43.22.55a.8.8 0 00.54.18 1.15 1.15 0 00.88-.37l.28.67c-.16.14-.34.25-.55.33-.21.08-.45.12-.72.12-.26 0-.5-.04-.71-.13a1.2 1.2 0 01-.53-.43 1.5 1.5 0 01-.2-.78V1.8l.8-.22zM33.69 3v.69h-3.62V3h3.62zM38.9.7v8.98h-.69V.7h.7zm8.69.7v4.34c0 .74-.2 1.32-.6 1.74-.4.41-.94.62-1.64.62-.5 0-.9-.1-1.22-.28a1.5 1.5 0 01-.67-.79 2.34 2.34 0 01-.05-1.21l.74-.15c-.07.57-.02.99.15 1.27.18.27.52.41 1.02.41.57 0 .95-.15 1.16-.46.2-.31.3-.76.3-1.35V1.4h.8zm3.94 1.5c.47 0 .89.1 1.25.31.36.2.65.5.86.9.2.39.3.85.3 1.39 0 .54-.1 1-.3 1.4-.21.39-.5.68-.86.89-.36.2-.78.31-1.25.31s-.89-.1-1.25-.31c-.37-.2-.66-.5-.86-.89-.21-.4-.31-.86-.31-1.4 0-.54.1-1 .3-1.39.21-.4.5-.7.87-.9.36-.2.78-.31 1.25-.31zm0 .69c-.34 0-.63.08-.87.23-.24.15-.43.37-.56.66-.13.28-.2.62-.2 1.02s.07.73.2 1.02c.13.29.32.5.56.66.24.15.53.23.87.23.34 0 .63-.08.87-.23.24-.15.42-.37.55-.66.13-.29.2-.63.2-1.02 0-.4-.07-.74-.2-1.02-.13-.29-.31-.5-.55-.66a1.58 1.58 0 00-.87-.23zm5.73 4.51c-.32 0-.62-.06-.9-.18a1.57 1.57 0 01-.7-.58 1.95 1.95 0 01-.26-1.06V3h.8v3.07c0 .5.11.86.33 1.05.22.19.53.28.93.28a1.39 1.39 0 001.37-.92c.09-.21.13-.47.13-.76V3h.8v5h-.7l-.05-.76c-.17.3-.4.52-.7.66-.3.13-.65.2-1.05.2zM67.9 3h.9l-1.75 5h-.8l-1.4-3.98L63.5 8h-.8l-1.74-5h.9l1.25 4.07L64.47 3h.8l1.36 4.07L67.9 3zm5.28 5V3h.7l.05.78c.18-.3.41-.53.7-.67s.59-.21.9-.21c.35 0 .68.08 1 .24.31.16.55.4.72.74.1-.23.25-.41.45-.55a2.2 2.2 0 011.29-.43c.32 0 .62.07.9.2.3.13.54.34.73.62.18.28.28.64.28 1.08V8h-.8V4.88c0-.45-.12-.78-.34-.98-.23-.2-.51-.3-.84-.3a1.43 1.43 0 00-1.28.75c-.14.25-.2.55-.2.91V8h-.8V4.88c0-.45-.12-.78-.34-.98-.23-.2-.51-.3-.84-.3a1.48 1.48 0 00-1.25.73c-.16.25-.23.59-.23 1V8h-.8zm12.45-3.23c0-.37-.1-.66-.3-.86-.2-.2-.49-.31-.85-.31-.35 0-.64.08-.88.23-.24.15-.42.39-.53.72l-.65-.4c.13-.37.38-.67.74-.9.36-.23.8-.35 1.34-.35.36 0 .68.06.98.19.3.12.52.3.69.56.17.25.26.57.26.96v2.42c0 .24.12.36.38.36.12 0 .25-.02.37-.05l-.04.63c-.14.07-.3.1-.52.1-.2 0-.37-.04-.52-.11a.82.82 0 01-.36-.33 1.14 1.14 0 01-.13-.57v-.1l.2.03c-.08.26-.22.47-.41.64a2 2 0 01-.65.36 2.42 2.42 0 01-1.53-.04 1.4 1.4 0 01-.61-.45c-.15-.2-.22-.46-.22-.76 0-.37.12-.68.37-.92.25-.25.6-.41 1.05-.5l1.98-.39v.66l-1.61.33c-.33.07-.57.16-.73.28a.59.59 0 00-.24.5c0 .2.08.38.24.51.16.13.4.19.7.19.2 0 .37-.02.55-.07.18-.05.34-.13.48-.23.14-.1.25-.24.33-.39.08-.16.12-.35.12-.56V4.77zM88.36 8V3h.7l.07 1.12-.13-.11a1.67 1.67 0 011.05-1 2.52 2.52 0 011.72.1c.3.13.53.34.7.62.18.28.27.64.27 1.07V8h-.8V5.08c0-.55-.12-.94-.36-1.15a1.22 1.22 0 00-.87-.33c-.24 0-.48.06-.72.17-.24.11-.44.3-.6.55-.15.25-.23.6-.23 1.02V8h-.8zm6.6-5.96a.62.62 0 01-.45-.16.62.62 0 01-.16-.44c0-.18.06-.32.16-.43a.6.6 0 01.44-.17c.18 0 .33.06.43.17.12.1.17.25.17.43a.6.6 0 01-.17.44c-.1.1-.25.16-.43.16zm.4.96v5h-.8V3h.8zm3.94 5.1c-.47 0-.9-.1-1.27-.31-.37-.2-.65-.5-.86-.89-.2-.4-.31-.86-.31-1.4 0-.54.1-1 .3-1.39.22-.4.5-.7.86-.9.36-.2.77-.31 1.23-.31.47 0 .86.1 1.19.3.33.2.59.47.76.82.17.34.26.72.26 1.15a4.19 4.19 0 01-.04.56h-4.04v-.71h3.69l-.41.08c0-.48-.13-.85-.4-1.11a1.4 1.4 0 00-1.03-.39c-.33 0-.61.08-.85.23-.23.15-.42.36-.55.65-.13.28-.2.62-.2 1.02s.08.73.2 1.02c.14.29.33.5.57.66.25.15.54.22.88.22.37 0 .66-.07.89-.21.23-.14.42-.33.56-.57l.63.37c-.13.23-.3.42-.5.59-.18.17-.41.3-.68.39-.26.09-.55.13-.88.13zm3.68-.1V3h.65l.11.82c.14-.3.34-.54.61-.69a2 2 0 011.27-.21c.1.01.2.04.27.08l-.14.73a1.29 1.29 0 00-.24-.06 2.6 2.6 0 00-.37-.02c-.2 0-.42.06-.63.18-.2.12-.38.3-.52.55a1.8 1.8 0 00-.2.92V8h-.8zm10.31-5h.84l-2.08 5h-.8l-2.08-5h.91l1.58 4.19L113.3 3zm4.68 1.77c0-.37-.1-.66-.3-.86-.2-.2-.48-.31-.85-.31-.35 0-.64.08-.88.23-.24.15-.42.39-.53.72l-.65-.4c.13-.37.38-.67.74-.9.36-.23.8-.35 1.34-.35.36 0 .69.06.98.19.3.12.52.3.7.56.16.25.25.57.25.96v2.42c0 .24.13.36.38.36.13 0 .25-.02.37-.05l-.04.63c-.13.07-.3.1-.52.1-.2 0-.37-.04-.52-.11a.82.82 0 01-.36-.33 1.14 1.14 0 01-.13-.57v-.1l.2.03c-.08.26-.22.47-.4.64a2 2 0 01-.66.36 2.42 2.42 0 01-1.53-.04 1.4 1.4 0 01-.6-.45c-.16-.2-.23-.46-.23-.76 0-.37.12-.68.37-.92.25-.25.6-.41 1.05-.5l1.98-.39v.66l-1.6.33c-.34.07-.58.16-.74.28a.59.59 0 00-.24.5c0 .2.08.38.24.51.17.13.4.19.7.19.2 0 .38-.02.55-.07.18-.05.34-.13.48-.23.14-.1.25-.24.33-.39.08-.16.12-.35.12-.56V4.77zM120.72 8V3h.7l.06 1.12-.13-.11a1.67 1.67 0 011.06-1 2.52 2.52 0 011.72.1c.29.13.52.34.7.62.17.28.27.64.27 1.07V8h-.8V5.08c0-.55-.13-.94-.36-1.15a1.22 1.22 0 00-.88-.33c-.23 0-.48.06-.72.17-.23.11-.44.3-.6.55-.15.25-.22.6-.22 1.02V8h-.8zM7.2 15h.89l-1.74 5h-.8l-1.41-3.98L2.81 20h-.8L.27 15h.89l1.26 4.07L3.78 15h.8l1.36 4.07L7.2 15zm4.02 5.1c-.47 0-.9-.1-1.27-.31-.36-.2-.65-.5-.86-.89-.2-.4-.3-.86-.3-1.4 0-.54.1-1 .3-1.39.21-.4.5-.7.85-.9.36-.2.77-.31 1.23-.31.47 0 .87.1 1.2.3.33.2.58.47.75.82.18.34.26.72.26 1.15a4.36 4.36 0 01-.04.56H9.3v-.71H13l-.42.08c0-.48-.13-.85-.4-1.11a1.4 1.4 0 00-1.03-.39c-.32 0-.6.08-.85.23-.23.15-.41.36-.55.65-.12.28-.19.62-.19 1.02s.07.73.2 1.02c.14.29.32.5.56.66.25.15.54.22.88.22.37 0 .67-.07.9-.21.23-.14.41-.33.55-.57l.63.37a2.09 2.09 0 01-1.18.98c-.26.09-.55.13-.88.13zm3.68-.1v-5h.65l.11.82c.14-.3.35-.54.61-.69a2 2 0 011.27-.21c.11.01.2.04.27.08l-.14.73a1.26 1.26 0 00-.24-.06 2.6 2.6 0 00-.37-.02c-.2 0-.41.06-.63.18-.2.12-.38.3-.52.55a1.8 1.8 0 00-.2.92V20h-.8zm8.48-5l-2.16 2.16-.2.19-1.63 1.64v-1L22.37 15h1zm-3.6-2.3V20h-.8v-7.3h.8zm1.5 4.05L23.5 20h-.97l-1.91-2.8.67-.45zm5.3 3.35c-.48 0-.9-.1-1.28-.31-.36-.2-.65-.5-.86-.89-.2-.4-.3-.86-.3-1.4 0-.54.1-1 .3-1.39.21-.4.5-.7.85-.9.36-.2.77-.31 1.23-.31.47 0 .87.1 1.2.3.33.2.58.47.75.82.18.34.26.72.26 1.15a4.36 4.36 0 01-.04.56h-4.04v-.71h3.7l-.42.08c0-.48-.13-.85-.4-1.11a1.4 1.4 0 00-1.03-.39c-.32 0-.6.08-.85.23-.23.15-.41.36-.55.65-.12.28-.19.62-.19 1.02s.07.73.2 1.02c.14.29.32.5.56.66.25.15.54.22.88.22.37 0 .67-.07.9-.21.23-.14.41-.33.55-.57l.63.37a2.09 2.09 0 01-1.18.98c-.26.09-.55.13-.88.13zm3.68-.1v-5h.7l.07 1.12-.13-.11a1.66 1.66 0 011.05-1 2.52 2.52 0 011.72.1c.29.13.52.34.7.62.18.28.27.64.27 1.07V20h-.8v-2.92c0-.55-.12-.94-.36-1.15a1.22 1.22 0 00-.87-.33c-.24 0-.48.06-.72.17-.24.11-.44.3-.6.55-.16.25-.23.6-.23 1.02V20h-.8zm6.59-1.2c.2 0 .35.06.47.18s.18.28.18.47c0 .2-.06.35-.18.47a.64.64 0 01-.47.18.64.64 0 01-.47-.18.64.64 0 01-.18-.47c0-.2.06-.35.18-.47a.64.64 0 01.47-.18zm9.14-5.4v4.34c0 .74-.2 1.32-.6 1.74-.4.41-.94.62-1.64.62-.5 0-.9-.1-1.22-.28a1.5 1.5 0 01-.67-.79 2.34 2.34 0 01-.05-1.21l.74-.15c-.08.57-.03.99.15 1.27.18.27.52.41 1.02.41.56 0 .95-.15 1.16-.46.2-.31.3-.76.3-1.35V13.4h.8zm3.93 1.5c.48 0 .9.1 1.25.31.37.2.66.5.86.9.21.39.31.85.31 1.39 0 .54-.1 1-.3 1.4-.21.39-.5.68-.87.89-.36.2-.77.31-1.25.31-.46 0-.88-.1-1.25-.31-.36-.2-.65-.5-.86-.89-.2-.4-.3-.86-.3-1.4 0-.54.1-1 .3-1.39.21-.4.5-.7.86-.9.37-.2.79-.31 1.25-.31zm0 .69c-.34 0-.63.08-.87.23-.24.15-.42.37-.56.66-.12.28-.19.62-.19 1.02s.07.73.2 1.02c.13.29.31.5.55.66.24.15.53.23.87.23.34 0 .63-.08.87-.23.24-.15.43-.37.55-.66.14-.29.2-.63.2-1.02 0-.4-.06-.74-.2-1.02-.12-.29-.3-.5-.55-.66a1.58 1.58 0 00-.87-.23zm5.74 4.51c-.32 0-.62-.06-.91-.18a1.57 1.57 0 01-.69-.58 1.95 1.95 0 01-.26-1.06V15h.8v3.07c0 .5.11.86.33 1.05.22.19.53.28.93.28a1.39 1.39 0 001.37-.92c.09-.21.13-.47.13-.76V15h.8v5h-.7l-.05-.76c-.17.3-.41.52-.71.66-.3.13-.64.2-1.04.2zM66.29 15h.9l-1.75 5h-.8l-1.4-3.98L61.9 20h-.8l-1.74-5h.9l1.25 4.07L62.87 15h.8l1.36 4.07L66.3 15zm11.32 0h.89l-1.74 5h-.8l-1.41-3.98L73.22 20h-.8l-1.74-5h.89l1.26 4.07L74.19 15h.8l1.36 4.07L77.61 15zm4.02 5.1c-.47 0-.9-.1-1.27-.31-.36-.2-.65-.5-.86-.89-.2-.4-.3-.86-.3-1.4 0-.54.1-1 .3-1.39.21-.4.5-.7.85-.9.36-.2.77-.31 1.23-.31.47 0 .87.1 1.2.3.33.2.58.47.75.82.18.34.26.72.26 1.15a4.42 4.42 0 01-.04.56h-4.04v-.71h3.7l-.42.08c0-.48-.13-.85-.4-1.11a1.4 1.4 0 00-1.03-.39c-.32 0-.6.08-.85.23-.23.15-.41.36-.55.65-.12.28-.19.62-.19 1.02s.07.73.2 1.02c.14.29.32.5.56.66.25.15.54.22.88.22.37 0 .67-.07.9-.21.23-.14.41-.33.55-.57l.63.37a2.09 2.09 0 01-1.18.98c-.26.09-.55.13-.88.13zm3.68-.1v-5h.65l.11.82c.14-.3.35-.54.61-.69a2 2 0 011.27-.21c.11.01.2.04.27.08l-.14.73a1.26 1.26 0 00-.24-.06 2.6 2.6 0 00-.37-.02c-.2 0-.41.06-.63.18-.2.12-.38.3-.52.55a1.8 1.8 0 00-.2.92V20h-.8zm8.48-5l-2.16 2.16-.2.19-1.63 1.64v-1L92.78 15h1zm-3.6-2.3V20h-.8v-7.3h.8zm1.5 4.05L93.92 20h-.97l-1.91-2.8.67-.45zm3.38 5.35V15h.7l.07 1.22-.1-.14c.08-.23.2-.44.38-.61.17-.18.38-.32.63-.42.25-.1.51-.15.8-.15.4 0 .78.1 1.12.31.35.2.62.5.83.89.2.39.31.85.31 1.4 0 .54-.1 1-.32 1.4a2.18 2.18 0 01-3.06.9c-.3-.2-.53-.47-.66-.78l.1-.15v3.23h-.8zm2.37-2.7c.5 0 .88-.17 1.15-.52.28-.35.42-.8.42-1.38 0-.57-.14-1.03-.4-1.38a1.34 1.34 0 00-1.14-.52 1.48 1.48 0 00-1.4.9c-.13.28-.2.61-.2 1 0 .38.06.71.2 1 .12.29.3.51.54.67.24.15.52.23.83.23zm4.66-6.7v6.03c0 .25.05.43.14.53.1.1.24.14.45.14a1.5 1.5 0 00.68-.14l-.13.7c-.1.05-.22.08-.35.1-.13.03-.26.04-.39.04-.4 0-.71-.11-.91-.33-.2-.22-.29-.56-.29-1.01V12.7h.8zm4.39 7.4c-.48 0-.9-.1-1.27-.31-.37-.2-.66-.5-.86-.89-.21-.4-.31-.86-.31-1.4 0-.54.1-1 .3-1.39.21-.4.5-.7.86-.9.36-.2.77-.31 1.23-.31.46 0 .86.1 1.19.3.33.2.58.47.76.82.17.34.26.72.26 1.15a4.82 4.82 0 01-.04.56h-4.04v-.71h3.69l-.41.08c0-.48-.14-.85-.4-1.11a1.4 1.4 0 00-1.03-.39c-.33 0-.61.08-.85.23-.24.15-.42.36-.55.65-.13.28-.2.62-.2 1.02s.07.73.2 1.02c.14.29.33.5.57.66.24.15.54.22.88.22.36 0 .66-.07.89-.21.23-.14.42-.33.56-.57l.63.37a2.1 2.1 0 01-1.18.98c-.26.09-.56.13-.88.13zm8.07-5.1l-2.16 2.16-.2.19-1.63 1.64v-1l2.98-2.99h1zm-3.6-2.3V20h-.8v-7.3h.8zm1.5 4.05l2.22 3.25h-.97l-1.91-2.8.67-.45zm3.78 2.05c.2 0 .35.06.47.18s.18.28.18.47c0 .2-.06.35-.18.47a.64.64 0 01-.47.18.64.64 0 01-.47-.18.64.64 0 01-.18-.47c0-.2.06-.35.18-.47a.64.64 0 01.47-.18z" fill="#fff"/></svg>